<svg xmlns="http://www.w3.org/2000/svg" viewBox="0 0 10 10">
  <defs>
    <style>
      .text {
        stroke: #000;
        stroke-linecap: round;
        stroke-linejoin: round;
        stroke-width: 0.5px;
        fill: none;
      }
    </style>
  </defs>
  <g>
    <circle fill="#000" cx="3.71" cy="5" r="0.5" />
    <g class="text">
      <line x1="3.71" y1="4.21" x2="3.71" y2="4.07"/>
      <polyline points="3.71 4.07 3.71 4.03 3.71 3.99 3.72 3.95 3.72 3.9 3.73 3.86 3.73 3.82 3.74 3.78 3.75 3.74 3.77 3.7 3.78 3.66 3.79 3.62 3.81 3.59 3.83 3.55 3.84 3.51 3.86 3.47 3.88 3.44 3.91 3.4 3.93 3.37 3.95 3.33 3.98 3.3 4 3.27 4.03 3.24 4.06 3.21 4.09 3.18 4.12 3.15"/>
      <line x1="4.12" y1="3.15" x2="4.4" y2="2.9"/>
      <polyline points="4.4 2.9 4.43 2.87 4.46 2.85 4.48 2.82 4.5 2.79 4.53 2.77 4.55 2.74 4.57 2.71 4.59 2.68 4.61 2.65 4.63 2.62 4.64 2.58 4.66 2.55 4.67 2.52 4.68 2.48 4.7 2.45 4.71 2.42 4.72 2.38 4.72 2.35 4.73 2.31 4.74 2.27 4.74 2.24 4.75 2.2 4.75 2.17 4.75 2.13 4.75 2.1 4.75 2.06 4.74 2.02 4.74 1.99 4.74 1.95 4.73 1.92 4.72 1.88 4.71 1.85 4.7 1.81 4.69 1.78 4.68 1.75 4.66 1.71 4.65 1.68 4.63 1.65 4.62 1.61 4.6 1.58 4.58 1.55 4.56 1.52 4.54 1.49 4.52 1.47 4.49 1.44 4.47 1.41 4.44 1.39 4.42 1.36 4.39 1.34 4.36 1.31 4.33 1.29 4.3 1.27 4.28 1.25 4.25 1.23 4.21 1.21 4.18 1.2 4.15 1.18 4.12 1.17 4.08 1.15 4.05 1.14 4.02 1.13 3.98 1.12 3.95 1.11 3.91 1.1 3.88 1.1 3.84 1.09 3.8 1.09 3.77 1.08 3.73 1.08 3.7 1.08 3.66 1.08 3.62 1.09 3.59 1.09 3.55 1.09 3.52 1.1 3.48 1.11 3.45 1.12 3.41 1.13 3.38 1.14 3.34 1.15 3.31 1.16 3.28 1.18 3.25 1.19 3.21 1.21 3.18 1.23 3.15 1.25 3.12 1.26 3.09 1.29 3.06 1.31 3.04 1.33 3.01 1.35 2.98 1.38 2.96 1.41 2.93 1.43 2.91 1.46 2.89 1.49 2.87 1.52 2.85 1.54 2.83 1.58 2.81 1.61 2.79 1.64 2.77 1.67 2.76 1.7 2.75 1.74 2.73 1.77 2.72 1.8 2.71 1.84 2.7 1.87 2.69 1.91 2.69 1.94 2.68 1.98 2.68 2.02 2.67 2.05 2.67 2.09 2.67 2.12"/>
    </g>
  </g>  
  <g stroke="#000" stroke-width="1px">
    <line x1="9" y1="1.88" x2="1" y2="9"/>
  </g>
  <g fill="#000">
    <circle cx="9" cy="1.88" r="1" />
    <circle cx="1" cy="9" r="1" />
  </g>
</svg>
