<svg xmlns="http://www.w3.org/2000/svg" viewBox="0 0 10 10">
  <g>
    <polygon points="5.495 9.105 5.495 9.285 0.495 9.285 3.155 5.045 3.165 5.055 3.315 5.155 3.455 5.255 3.595 5.355 3.725 5.465 3.855 5.585 3.985 5.695 4.225 5.955 4.335 6.085 4.445 6.215 4.555 6.355 4.645 6.495 4.745 6.645 4.835 6.795 4.915 6.945 4.995 7.105 5.065 7.255 5.135 7.415 5.195 7.585 5.255 7.745 5.305 7.915 5.345 8.075 5.385 8.245 5.425 8.415 5.445 8.585 5.465 8.765 5.485 8.935 5.495 9.105" style="fill: #787878;stroke: #000;stroke-linecap: round;stroke-linejoin: round;stroke-width: 0.1px"/>
    <path d="M5.5,9.481a.2.2,0,0,1-.2-.2l-.073-.835-.215-.8-.35-.754-.476-.684L3.6,5.617l-.538-.395a.2.2,0,0,1,.221-.334l.711.542.613.662.489.756.351.831.174.7.076.717,0,.182a.2.2,0,0,1-.2.2Z" style="fill:#000;"/>
  </g>
  <g>
    <polygon points="7.443 7.7 7.442 7.688 7.442 7.676 7.441 7.664 7.439 7.652 7.437 7.64 7.435 7.628 7.432 7.616 7.429 7.604 7.426 7.592 7.422 7.581 7.417 7.57 7.413 7.558 7.408 7.547 7.402 7.537 7.396 7.526 7.39 7.515 7.383 7.505 7.376 7.495 7.369 7.486 7.362 7.476 7.354 7.467 7.345 7.458 7.337 7.449 7.328 7.441 7.319 7.433 7.309 7.425 7.3 7.418 7.29 7.411 7.28 7.404 7.269 7.398 7.259 7.392 7.248 7.386 7.237 7.381 7.226 7.376 7.215 7.372 7.203 7.368 7.191 7.364 7.18 7.361 7.168 7.358 7.156 7.356 7.144 7.354 7.132 7.352 7.12 7.351 7.108 7.35 7.096 7.35 7.083 7.35 7.071 7.351 7.059 7.352 7.047 7.353 7.035 7.355 7.023 7.357 7.011 7.36 7 7.363 6.988 7.366 6.976 7.37 6.965 7.374 6.954 7.379 6.943 7.384 6.932 7.389 6.921 7.395 6.911 7.401 6.9 7.407 6.89 7.414 6.881 7.422 6.871 7.429 6.862 7.437 6.853 7.445 6.844 7.454 6.836 7.462 6.828 7.471 6.82 7.481 6.812 7.49 6.805 7.5 6.798 7.51 6.792 7.521 6.786 7.531 6.78 7.542 6.775 7.553 6.77 7.564 6.766 7.575 6.761 7.587 6.758 7.598 6.754 7.61 6.751 7.622 6.749 7.634 6.747 7.646 6.745 7.658 6.744 7.67 6.743 7.682 6.743 7.694 6.743 7.706 6.743 7.718 6.744 7.73 6.745 7.742 6.747 7.754 6.749 7.766 6.751 7.778 6.754 7.79 6.758 7.802 6.761 7.813 6.766 7.825 6.77 7.836 6.775 7.847 6.78 7.858 6.786 7.869 6.792 7.879 6.798 7.89 6.805 7.9 6.812 7.91 6.82 7.919 6.828 7.929 6.836 7.938 6.844 7.946 6.853 7.955 6.862 7.963 6.871 7.971 6.881 7.978 6.89 7.986 6.9 7.993 6.911 7.999 6.921 8.005 6.932 8.011 6.943 8.016 6.954 8.021 6.965 8.026 6.976 8.03 6.988 8.034 7 8.037 7.011 8.04 7.023 8.043 7.035 8.045 7.047 8.047 7.059 8.048 7.071 8.049 7.083 8.05 7.096 8.05 7.108 8.05 7.12 8.049 7.132 8.048 7.144 8.046 7.156 8.044 7.168 8.042 7.18 8.039 7.191 8.036 7.203 8.032 7.215 8.028 7.226 8.024 7.237 8.019 7.248 8.014 7.259 8.008 7.269 8.002 7.28 7.996 7.29 7.989 7.3 7.982 7.309 7.975 7.319 7.967 7.328 7.959 7.337 7.951 7.345 7.942 7.354 7.933 7.362 7.924 7.369 7.914 7.376 7.905 7.383 7.895 7.39 7.885 7.396 7.874 7.402 7.863 7.408 7.853 7.413 7.842 7.417 7.83 7.422 7.819 7.426 7.808 7.429 7.796 7.432 7.784 7.435 7.772 7.437 7.76 7.439 7.748 7.441 7.736 7.442 7.724 7.442 7.712 7.443 7.7" style="fill:#000;" />
    <polyline points="6.053 4.662 6.054 4.626 6.056 4.59 6.059 4.554 6.063 4.518 6.069 4.483 6.075 4.447 6.084 4.412 6.093 4.378 6.103 4.343 6.115 4.309 6.128 4.275 6.142 4.242 6.157 4.21 6.173 4.177 6.19 4.146 6.209 4.115 6.228 4.085 6.249 4.055 6.27 4.026 6.292 3.998 6.316 3.971 6.34 3.944 6.366 3.919 6.392 3.894 6.419 3.87 6.447 3.847 6.475 3.826 6.504 3.805 6.534 3.785 6.565 3.766 6.596 3.748 6.628 3.732 6.661 3.716 6.694 3.702 6.727 3.689 6.761 3.677 6.795 3.666 6.83 3.656 6.865 3.647 6.9 3.64 6.936 3.634 6.971 3.629 7.007 3.626 7.043 3.623 7.079 3.622 7.115 3.622 7.151 3.624 7.187 3.627 7.223 3.63 7.258 3.636 7.294 3.642 7.329 3.649 7.364 3.658 7.398 3.668 7.433 3.679 7.466 3.692 7.5 3.705 7.533 3.72 7.565 3.736 7.597 3.753 7.628 3.771 7.658 3.79 7.688 3.81 7.717 3.831 7.746 3.853 7.773 3.876 7.8 3.9 7.826 3.925 7.851 3.951 7.875 3.978 7.899 4.005 7.921 4.033 7.942 4.062 7.962 4.092 7.981 4.123 8 4.154 8.017 4.185 8.033 4.218 8.047 4.251 8.061 4.284 8.073 4.318 8.085 4.352 8.095 4.386 8.104 4.421 8.112 4.456 8.118 4.492 8.123 4.527 8.127 4.563 8.13 4.599 8.132 4.635 8.132 4.671 8.131 4.707 8.129 4.743 8.126 4.779 8.121 4.814 8.115 4.85 8.108 4.885 8.1 4.92 8.09 4.955 8.079 4.989 8.067 5.023 8.054 5.056 8.04 5.09 8.025 5.122 8.008 5.154 7.991 5.185 7.972 5.216 7.952 5.246 7.931 5.276 7.91 5.304 7.887 5.332 7.863 5.359 7.839 5.386 7.813 5.411 7.787 5.435 7.503 5.69 7.472 5.718 7.443 5.748 7.415 5.778 7.387 5.809 7.361 5.841 7.336 5.874 7.311 5.908 7.288 5.942 7.267 5.977 7.246 6.013 7.227 6.05 7.208 6.087 7.192 6.125 7.176 6.164 7.162 6.202 7.149 6.242 7.137 6.282 7.127 6.322 7.118 6.362 7.11 6.403 7.104 6.444 7.099 6.485 7.095 6.527 7.093 6.568 7.093 6.609 7.093 6.748" style="fill: none;stroke: #000;stroke-linecap: round;stroke-miterlimit: 10;stroke-width: 0.6px"/>
  </g>
  <g style="fill:#000;">
    <polygon points="0.946 9.281 0.945 9.266 0.944 9.25 0.943 9.235 0.941 9.219 0.939 9.204 0.936 9.188 0.932 9.173 0.928 9.158 0.924 9.143 0.919 9.128 0.913 9.114 0.907 9.099 0.9 9.085 0.893 9.071 0.886 9.058 0.878 9.044 0.869 9.031 0.86 9.018 0.851 9.006 0.841 8.993 0.831 8.982 0.821 8.97 0.81 8.959 0.798 8.948 0.786 8.938 0.774 8.928 0.762 8.919 0.749 8.91 0.736 8.901 0.723 8.893 0.709 8.885 0.695 8.878 0.681 8.871 0.667 8.865 0.652 8.86 0.638 8.854 0.623 8.85 0.608 8.846 0.592 8.842 0.577 8.839 0.562 8.836 0.546 8.834 0.531 8.833 0.515 8.832 0.499 8.831 0.484 8.832 0.468 8.832 0.453 8.833 0.437 8.835 0.422 8.838 0.406 8.84 0.391 8.844 0.376 8.848 0.361 8.852 0.346 8.857 0.331 8.862 0.317 8.868 0.303 8.875 0.289 8.882 0.275 8.889 0.262 8.897 0.248 8.905 0.235 8.914 0.223 8.923 0.211 8.933 0.199 8.943 0.187 8.954 0.176 8.965 0.165 8.976 0.155 8.988 0.145 9 0.135 9.012 0.126 9.025 0.117 9.038 0.109 9.051 0.101 9.064 0.094 9.078 0.087 9.092 0.081 9.107 0.075 9.121 0.07 9.136 0.065 9.151 0.061 9.166 0.057 9.181 0.054 9.196 0.051 9.211 0.049 9.227 0.047 9.242 0.046 9.258 0.046 9.274 0.046 9.289 0.046 9.305 0.047 9.32 0.049 9.336 0.051 9.351 0.054 9.367 0.057 9.382 0.061 9.397 0.065 9.412 0.07 9.427 0.075 9.442 0.081 9.456 0.087 9.471 0.094 9.485 0.101 9.499 0.109 9.512 0.117 9.525 0.126 9.538 0.135 9.551 0.145 9.563 0.155 9.575 0.165 9.587 0.176 9.598 0.187 9.609 0.199 9.62 0.211 9.63 0.223 9.639 0.235 9.649 0.248 9.658 0.262 9.666 0.275 9.674 0.289 9.681 0.303 9.688 0.317 9.695 0.331 9.7 0.346 9.706 0.361 9.711 0.376 9.715 0.391 9.719 0.406 9.723 0.422 9.725 0.437 9.728 0.453 9.729 0.468 9.731 0.484 9.731 0.499 9.731 0.515 9.731 0.531 9.73 0.546 9.729 0.562 9.727 0.577 9.724 0.592 9.721 0.608 9.717 0.623 9.713 0.638 9.708 0.652 9.703 0.667 9.698 0.681 9.691 0.695 9.685 0.709 9.678 0.723 9.67 0.736 9.662 0.749 9.653 0.762 9.644 0.774 9.635 0.786 9.625 0.798 9.614 0.81 9.604 0.821 9.593 0.831 9.581 0.841 9.569 0.851 9.557 0.86 9.545 0.869 9.532 0.878 9.519 0.886 9.505 0.893 9.492 0.9 9.478 0.907 9.464 0.913 9.449 0.919 9.435 0.924 9.42 0.928 9.405 0.932 9.39 0.936 9.374 0.939 9.359 0.941 9.344 0.943 9.328 0.944 9.313 0.945 9.297 0.946 9.281"/>
    <polygon points="6.159 0.965 6.158 0.949 6.158 0.934 6.156 0.918 6.154 0.903 6.152 0.887 6.149 0.872 6.145 0.857 6.141 0.842 6.137 0.827 6.132 0.812 6.126 0.797 6.12 0.783 6.114 0.769 6.107 0.755 6.099 0.741 6.091 0.728 6.083 0.714 6.074 0.702 6.064 0.689 6.055 0.677 6.044 0.665 6.034 0.654 6.023 0.643 6.011 0.632 6 0.622 5.987 0.612 5.975 0.602 5.962 0.593 5.949 0.585 5.936 0.576 5.922 0.569 5.908 0.562 5.894 0.555 5.88 0.549 5.865 0.543 5.851 0.538 5.836 0.533 5.821 0.529 5.806 0.525 5.79 0.522 5.775 0.52 5.759 0.518 5.744 0.516 5.728 0.515 5.713 0.515 5.697 0.515 5.681 0.516 5.666 0.517 5.65 0.519 5.635 0.521 5.619 0.524 5.604 0.527 5.589 0.531 5.574 0.535 5.559 0.54 5.545 0.546 5.53 0.552 5.516 0.558 5.502 0.565 5.488 0.573 5.475 0.58 5.461 0.589 5.449 0.598 5.436 0.607 5.424 0.617 5.412 0.627 5.4 0.637 5.389 0.648 5.378 0.659 5.368 0.671 5.358 0.683 5.348 0.695 5.339 0.708 5.33 0.721 5.322 0.734 5.314 0.748 5.307 0.762 5.3 0.776 5.294 0.79 5.288 0.804 5.283 0.819 5.278 0.834 5.274 0.849 5.27 0.864 5.267 0.879 5.264 0.895 5.262 0.91 5.26 0.926 5.259 0.941 5.259 0.957 5.259 0.973 5.259 0.988 5.26 1.004 5.262 1.019 5.264 1.035 5.267 1.05 5.27 1.066 5.274 1.081 5.278 1.096 5.283 1.111 5.288 1.125 5.294 1.14 5.3 1.154 5.307 1.168 5.314 1.182 5.322 1.196 5.33 1.209 5.339 1.222 5.348 1.234 5.358 1.247 5.368 1.259 5.378 1.27 5.389 1.282 5.4 1.293 5.412 1.303 5.424 1.313 5.436 1.323 5.449 1.332 5.461 1.341 5.475 1.349 5.488 1.357 5.502 1.365 5.516 1.372 5.53 1.378 5.545 1.384 5.559 1.389 5.574 1.394 5.589 1.399 5.604 1.403 5.619 1.406 5.635 1.409 5.65 1.411 5.666 1.413 5.681 1.414 5.697 1.415 5.713 1.415 5.728 1.414 5.744 1.414 5.759 1.412 5.775 1.41 5.79 1.407 5.806 1.404 5.821 1.401 5.836 1.397 5.851 1.392 5.865 1.387 5.88 1.381 5.894 1.375 5.908 1.368 5.922 1.361 5.936 1.353 5.949 1.345 5.962 1.337 5.975 1.328 5.987 1.318 6 1.308 6.011 1.298 6.023 1.287 6.034 1.276 6.044 1.265 6.055 1.253 6.064 1.241 6.074 1.228 6.083 1.215 6.091 1.202 6.099 1.189 6.107 1.175 6.114 1.161 6.12 1.147 6.126 1.133 6.132 1.118 6.137 1.103 6.141 1.088 6.145 1.073 6.149 1.058 6.152 1.043 6.154 1.027 6.156 1.012 6.158 0.996 6.158 0.981 6.159 0.965"/>
    <polygon points="9.95 9.281 9.95 9.266 9.949 9.25 9.948 9.235 9.946 9.219 9.943 9.204 9.94 9.188 9.937 9.173 9.933 9.158 9.928 9.143 9.923 9.128 9.918 9.114 9.912 9.099 9.905 9.085 9.898 9.071 9.89 9.058 9.882 9.044 9.874 9.031 9.865 9.018 9.856 9.006 9.846 8.993 9.836 8.982 9.825 8.97 9.814 8.959 9.803 8.948 9.791 8.938 9.779 8.928 9.766 8.919 9.754 8.91 9.741 8.901 9.727 8.893 9.714 8.885 9.7 8.878 9.686 8.871 9.671 8.865 9.657 8.86 9.642 8.854 9.627 8.85 9.612 8.846 9.597 8.842 9.582 8.839 9.566 8.836 9.551 8.834 9.535 8.833 9.519 8.832 9.504 8.831 9.488 8.832 9.473 8.832 9.457 8.833 9.442 8.835 9.426 8.838 9.411 8.84 9.395 8.844 9.38 8.848 9.365 8.852 9.351 8.857 9.336 8.862 9.321 8.868 9.307 8.875 9.293 8.882 9.279 8.889 9.266 8.897 9.253 8.905 9.24 8.914 9.227 8.923 9.215 8.933 9.203 8.943 9.192 8.954 9.18 8.965 9.17 8.976 9.159 8.988 9.149 9 9.14 9.012 9.13 9.025 9.122 9.038 9.114 9.051 9.106 9.064 9.098 9.078 9.092 9.092 9.085 9.107 9.079 9.121 9.074 9.136 9.069 9.151 9.065 9.166 9.061 9.181 9.058 9.196 9.055 9.211 9.053 9.227 9.052 9.242 9.051 9.258 9.05 9.274 9.05 9.289 9.051 9.305 9.052 9.32 9.053 9.336 9.055 9.351 9.058 9.367 9.061 9.382 9.065 9.397 9.069 9.412 9.074 9.427 9.079 9.442 9.085 9.456 9.092 9.471 9.098 9.485 9.106 9.499 9.114 9.512 9.122 9.525 9.13 9.538 9.14 9.551 9.149 9.563 9.159 9.575 9.17 9.587 9.18 9.598 9.192 9.609 9.203 9.62 9.215 9.63 9.227 9.639 9.24 9.649 9.253 9.658 9.266 9.666 9.279 9.674 9.293 9.681 9.307 9.688 9.321 9.695 9.336 9.7 9.351 9.706 9.365 9.711 9.38 9.715 9.395 9.719 9.411 9.723 9.426 9.725 9.442 9.728 9.457 9.729 9.473 9.731 9.488 9.731 9.504 9.731 9.519 9.731 9.535 9.73 9.551 9.729 9.566 9.727 9.582 9.724 9.597 9.721 9.612 9.717 9.627 9.713 9.642 9.708 9.657 9.703 9.671 9.698 9.686 9.691 9.7 9.685 9.714 9.678 9.727 9.67 9.741 9.662 9.754 9.653 9.766 9.644 9.779 9.635 9.791 9.625 9.803 9.614 9.814 9.604 9.825 9.593 9.836 9.581 9.846 9.569 9.856 9.557 9.865 9.545 9.874 9.532 9.882 9.519 9.89 9.505 9.898 9.492 9.905 9.478 9.912 9.464 9.918 9.449 9.923 9.435 9.928 9.42 9.933 9.405 9.937 9.39 9.94 9.374 9.943 9.359 9.946 9.344 9.948 9.328 9.949 9.313 9.95 9.297 9.95 9.281"/>
    <path d="M9.5,9.531H.5a.25.25,0,0,1-.212-.383L5.5.832A.252.252,0,0,1,5.841.753.249.249,0,0,1,5.92,1.1L.947,9.031H9.5a.25.25,0,0,1,0,.5Z" />
  </g>
</svg>
