<svg xmlns="http://www.w3.org/2000/svg" viewBox="0 0 24 24">
	<path style="fill:#C6C6C6;" d="M17,20.93c0,0.59-0.48,1.07-1.07,1.07H3.07C2.48,22,2,21.52,2,20.93V8.07C2,7.48,2.48,7,3.07,7 h12.86C16.52,7,17,7.48,17,8.07V20.93z"/>
	<path style="fill:#FFF;stroke:#000;stroke-linejoin:round;stroke-miterlimit:10;" d="M13.8,11.53h6.48 c0.66,0,1.21-0.54,1.21-1.18l0.01-6.62c0-0.68-0.54-1.22-1.2-1.22l-9.59,0.01c-0.66,0-1.21,0.54-1.21,1.2l0.01,6.61 c0,0.66,0.04,1.2,0.7,1.2h1.12v2.97l2.37-2.97H13.8z"/>
	<line style="fill:none;stroke:#000;stroke-linejoin:round;stroke-miterlimit:10;" x1="12.01" y1="5.5" x2="18.99" y2="5.5"/>
	<line style="fill:none;stroke:#000;stroke-linejoin:round;stroke-miterlimit:10;" x1="12.01" y1="8.46" x2="17" y2="8.46"/>
</svg>
