<svg xmlns="http://www.w3.org/2000/svg" xmlns:xlink="http://www.w3.org/1999/xlink" width="260" height="180" viewBox="0 0 260.00 180.00">
  <defs>
    <style>
      #loader-bcwall {animation: bcwall 2s ease infinite;}
      #loader-mcwall {animation: mcwall 2s ease infinite;}
      #loader-fcwall {animation: fcwall 2s ease infinite;}
      @keyframes bcwall {
        0% {opacity: 0;}
        20% {opacity: 0;}
        40% {opacity: 1;}
        80% {opacity: 1;}
        100% {opacity: 0;}
      }
      @keyframes mcwall {
        0% {opacity: 0;}
        10% {opacity: 0;}
        30% {opacity: 1;}
        70% {opacity: 1;}
        90% {opacity: 0;}
        100% {opacity: 0;}
      }
      @keyframes fcwall {
        0% {opacity: 0;}
        20% {opacity: 1;}
        60% {opacity: 1;}
        80% {opacity: 0;}
        100% {opacity: 0;}
      }
    </style>
  </defs>
  <g id="loader-bcwall">
	  <path style="fill:#157699;" d="M 250.268,119.89L 250.268,69.3026C 250.268,69.3026 241.884,38.3601 213.985,29.2913C 205.626,26.5783 193.221,24.7016 176.165,25.7355C 143.035,27.7578 103.673,28.1618 93.5401,22.2948C 87.8621,19.0148 85.2316,13.7451 83.5916,9.95906C 82.7575,8.0193 82.7835,9.58545 82.7835,9.58545L 88.075,59.4605C 88.075,59.4605 93.766,74.7613 114.297,77.6046C 134.861,80.4415 190.369,77.7632 197.587,77.6046C 231.416,76.8552 245.698,110.439 249.35,120.47C 249.875,121.899 250.268,120.939 250.268,119.89 Z " />
  </g>
	<g id="loader-mcwall">
		<path style="fill:#1B94C0;opacity:0.8;" d="M 217.877,148.213L 217.877,96.5133C 217.877,96.5133 209.488,65.5752 181.593,56.4999C 173.23,53.7912 160.821,51.9101 143.767,52.9484C 110.639,54.9641 71.2795,55.3704 61.1442,49.5099C 55.4705,46.2364 52.8357,40.9602 51.2,37.1676C 50.3594,35.23 50.3855,36.794 50.3855,36.794L 55.6812,86.6669C 55.6812,86.6669 61.3701,101.981 81.9101,104.815C 102.465,107.657 157.971,104.974 165.195,104.815C 199.02,104.068 213.304,137.645 216.956,147.681C 217.481,149.115 217.877,148.213 217.877,148.213 Z "/>
	</g>
	<g id="loader-fcwall">
		<path style="fill:#4DBBE1;opacity:0.8;" d="M 177.889,170.79L 177.889,119.081C 177.889,119.081 169.5,88.1409 141.607,79.0808C 133.249,76.3591 120.848,74.478 103.788,75.525C 70.6535,77.5321 32.4777,77.2258 22.3489,71.3783C 16.6687,68.0853 12.85,63.5216 11.2144,59.742C 10.376,57.8088 10.4107,59.3663 10.4107,59.3663L 15.6999,109.239C 15.6999,109.239 21.3932,124.538 41.931,127.392C 62.4862,130.227 117.992,127.54 125.214,127.392C 159.039,126.647 173.317,160.216 176.977,170.244C 177.492,171.676 177.889,170.79 177.889,170.79 Z "/>
	</g>
</svg>
