<svg xmlns="http://www.w3.org/2000/svg" viewBox="0 0 10 10">
  <defs>
    <style>
      .text {
        stroke: #000;
        stroke-linecap: round;
        stroke-linejoin: round;
        stroke-width: 0.5px;
        fill: none;
      }
    </style>
  </defs>
  <g class="text">
    <line x1="7.1" y1="3.88" x2="5.84" y2="3.88"/>
    <polyline points="5.84 3.88 5.84 3.86 5.84 3.85 5.84 3.83 5.84 3.81 5.85 3.79 5.85 3.77 5.86 3.76 5.86 3.74 5.86 3.72 5.87 3.71 5.88 3.69 5.88 3.67 5.89 3.66 5.9 3.64 5.91 3.63 5.92 3.61 5.92 3.6 5.93 3.58 5.95 3.57 5.96 3.55 5.97 3.54 5.98 3.52 5.99 3.51 6 3.5 6.02 3.49 6.03 3.48 6.04 3.46 6.06 3.46 6.07 3.44"/>
    <line x1="6.07" y1="3.44" x2="6.85" y2="2.93"/>
    <polyline points="6.85 2.93 6.86 2.92 6.88 2.91 6.89 2.9 6.91 2.88 6.92 2.87 6.93 2.86 6.95 2.85 6.96 2.83 6.97 2.82 6.98 2.81 6.99 2.79 7 2.78 7.01 2.77 7.02 2.75 7.03 2.74 7.04 2.72 7.04 2.71 7.05 2.69 7.06 2.68 7.07 2.66 7.07 2.65 7.08 2.63 7.08 2.62 7.08 2.6 7.09 2.58 7.09 2.57 7.09 2.55 7.1 2.54 7.1 2.52 7.1 2.51 7.1 2.5 7.1 2.48 7.1 2.47 7.1 2.46 7.1 2.44 7.1 2.43 7.09 2.42 7.09 2.4 7.09 2.39 7.09 2.38 7.09 2.37 7.08 2.35 7.08 2.34 7.08 2.33 7.07 2.31 7.07 2.3 7.06 2.29 7.05 2.27 7.05 2.26 7.04 2.25 7.04 2.23 7.03 2.22 7.02 2.21 7.01 2.2 7 2.19 7 2.17 6.99 2.16 6.98 2.15 6.97 2.14 6.96 2.13 6.95 2.12 6.94 2.1 6.93 2.09 6.92 2.08 6.9 2.07 6.89 2.06 6.88 2.06 6.87 2.04 6.85 2.04 6.84 2.03 6.83 2.02 6.81 2.01 6.8 2 6.79 2 6.77 1.99 6.76 1.98 6.75 1.98 6.73 1.97 6.72 1.97 6.7 1.96 6.69 1.95 6.67 1.95 6.66 1.95 6.64 1.94 6.63 1.94 6.61 1.94 6.6 1.93 6.58 1.93 6.57 1.93 6.55 1.93 6.54 1.92 6.53 1.92 6.51 1.92 6.5 1.92 6.48 1.92 6.47 1.92 6.46 1.92 6.44 1.92 6.43 1.92 6.41 1.92 6.4 1.92 6.38 1.93 6.37 1.93 6.36 1.93 6.34 1.93 6.33 1.94 6.31 1.94 6.3 1.94 6.28 1.95 6.27 1.95 6.25 1.95 6.24 1.96 6.22 1.97 6.21 1.97 6.2 1.98 6.18 1.98 6.17 1.99 6.15 2 6.14 2 6.13 2.01 6.11 2.02 6.1 2.03 6.09 2.04 6.07 2.04 6.06 2.06 6.05 2.06 6.04 2.07 6.03 2.08 6.01 2.09 6 2.1 5.99 2.12 5.98 2.13 5.97 2.14 5.96 2.15 5.95 2.16 5.94 2.17 5.93 2.19 5.93 2.2 5.92 2.21 5.91 2.22 5.9 2.23 5.9 2.25 5.89 2.26 5.88 2.27 5.88 2.29 5.87 2.3 5.87 2.31 5.87 2.33 5.86 2.34 5.86 2.35 5.85 2.37 5.85 2.38 5.85 2.39 5.85 2.4 5.84 2.42 5.84 2.43 5.84 2.44 5.84 2.46 5.84 2.47 5.84 2.48"/>
  </g>
  <g data-name="questionmark">
    <circle fill="#000" cx="3.82" cy="6.8" r="0.3" />
    <g class="text">
      <line x1="3.82" y1="5.96" x2="3.82" y2="5.82"/>
      <polyline points="3.82 5.82 3.82 5.78 3.82 5.73 3.82 5.69 3.83 5.65 3.83 5.61 3.84 5.57 3.85 5.53 3.86 5.49 3.87 5.45 3.89 5.41 3.9 5.37 3.92 5.33 3.94 5.29 3.95 5.25 3.97 5.22 3.99 5.18 4.01 5.14 4.04 5.11 4.06 5.08 4.09 5.04 4.12 5.01 4.14 4.98 4.17 4.95 4.2 4.92 4.23 4.89"/>
      <line x1="4.23" y1="4.89" x2="4.52" y2="4.63"/>
      <polyline points="4.52 4.63 4.54 4.61 4.57 4.58 4.6 4.55 4.62 4.53 4.64 4.5 4.67 4.47 4.69 4.44 4.71 4.41 4.72 4.38 4.74 4.35 4.76 4.32 4.77 4.28 4.79 4.25 4.8 4.21 4.81 4.18 4.83 4.15 4.83 4.11 4.84 4.08 4.85 4.04 4.86 4 4.86 3.97 4.86 3.93 4.87 3.9 4.87 3.86 4.87 3.82 4.87 3.79 4.86 3.75 4.86 3.71 4.85 3.68 4.85 3.64 4.84 3.61 4.83 3.57 4.82 3.54 4.81 3.5 4.8 3.47 4.78 3.44 4.77 3.4 4.75 3.37 4.73 3.34 4.71 3.31 4.7 3.27 4.67 3.25 4.65 3.22 4.63 3.19 4.61 3.16 4.58 3.13 4.56 3.11 4.53 3.08 4.5 3.06 4.48 3.03 4.45 3.01 4.42 2.99 4.39 2.97 4.36 2.95 4.33 2.93 4.29 2.92 4.26 2.9 4.23 2.88 4.2 2.87 4.16 2.86 4.13 2.85 4.09 2.84 4.06 2.83 4.02 2.82 3.98 2.81 3.95 2.81 3.91 2.81 3.88 2.8 3.84 2.8 3.8 2.8 3.77 2.8 3.73 2.8 3.69 2.81 3.66 2.81 3.62 2.82 3.59 2.83 3.55 2.83 3.52 2.84 3.48 2.85 3.45 2.87 3.42 2.88 3.38 2.9 3.35 2.91 3.32 2.93 3.29 2.95 3.25 2.96 3.22 2.98 3.19 3.01 3.17 3.03 3.14 3.05 3.11 3.08 3.08 3.1 3.06 3.13 3.03 3.15 3.01 3.18 2.99 3.21 2.96 3.24 2.94 3.27 2.92 3.3 2.91 3.33 2.89 3.36 2.87 3.39 2.86 3.43 2.84 3.46 2.83 3.49 2.82 3.53 2.81 3.56 2.8 3.6 2.79 3.63 2.78 3.67 2.78 3.71 2.77 3.74 2.77 3.78 2.77 3.81 2.77 3.85"/>
    </g>
  </g>
  <!-- <polygon stroke="#fff" stroke-width="1px" fill="none" stroke-linecap="round" points="6.75 9.3 1.15 7.45 0.45 1.15 9.55 0.65 6.75 9.3"/>   -->
  <!-- <polyline stroke="#fff" stroke-width="1px" fill="none" stroke-linecap="round" points="6.75 9.3 1.15 7.45 0.45 1.15 9.55 0.65 6.75 9.3"/>   -->
  <path stroke="#000" stroke-width="1px" fill="none" stroke-linejoin="round" d="M6.75 9.45 L1.15 7.45 0.55 1.15 9.5 0.55 Z"/>  
</svg>
